<svg xmlns="http://www.w3.org/2000/svg" xmlns:xlink="http://www.w3.org/1999/xlink" width="380" height="130" data-version="6.2"><defs>
    </defs><svg class="page-2D showed" xmlns="http://www.w3.org/2000/svg" x="0px" y="0" width="380" height="130" data-width="380" data-height="130" viewBox="0 0 380 130">
    <g class="content">
            <g class="layers" id="IDI_23u7i5ws">
                <g transform="matrix(1 0 0 1 0 0)" name="Layer 1" data-color="#ff7f00" class="layer selected"><path d="M 110.79046630859375 89.79544830322266 C 110.79046630859375 112.79602813720703 92.5105972290039 131.4416961669922 69.96124267578125 131.4416961669922 C 47.411888122558594 131.4416961669922 29.132017135620117 112.79602813720703 29.132017135620117 89.79544830322266 C 29.132017135620117 66.79486083984375 47.411888122558594 48.149200439453125 69.96124267578125 48.149200439453125 C 92.5105972290039 48.149200439453125 110.79046630859375 66.79486083984375 110.79046630859375 89.79544830322266 Z " stroke="none" fill="#000E57" stroke-width="0.39813419971027053" transform="matrix(1 0 0 1 -20.494 -42.3934)" class=""/><path d="M 73.02892303466797 154.93504333496094 C 125.80731201171875 90.5224609375 125.80731201171875 51.574424743652344 73.02892303466797 38.09091567993164 C 19.807037353515625 53.14749526977539 19.807037353515625 92.09554290771484 73.02892303466797 154.93504333496094 Z " fill="#000E57" fill-rule="nonzero" stroke="none" stroke-width="0.40980558108446513" stroke-linecap="butt" stroke-linejoin="miter" stroke-miterlimit="10" stroke-dasharray="" stroke-dashoffset="0" style="mix-blend-mode: normal" transform="matrix(1 0 0 1 -23.216 -30.8904)" class=""/><path d="M 31.844316482543945 36.103790283203125 L 31.844316482543945 45.810298919677734 C 43.69321060180664 46.216678619384766 53.22932434082031 45.18765640258789 60.452659606933594 42.72322082519531 L 60.452659606933594 33.03545379638672 C 53.835933685302734 35.081016540527344 44.2998161315918 36.10379409790039 31.844316482543945 36.10379409790039 L 31.844316482543945 36.103790283203125 Z " fill="#FF0000" fill-rule="nonzero" stroke="#FF0000" stroke-width="0.18375709197289086" stroke-linecap="butt" stroke-linejoin="miter" stroke-miterlimit="10" stroke-dasharray="" stroke-dashoffset="0" style="mix-blend-mode: normal" transform="matrix(1 0 0 1 3.88303 10.8576)" class="" fill-opacity="1"/><path d="M 31.844316482543945 36.103790283203125 L 31.844316482543945 45.81029510498047 C 43.69321060180664 46.216678619384766 53.22932434082031 45.187652587890625 60.452659606933594 42.72322082519531 L 60.452659606933594 33.03545379638672 C 53.835933685302734 35.08101272583008 44.2998161315918 36.103790283203125 31.844316482543945 36.103790283203125 L 31.844316482543945 36.103790283203125 Z " fill="#FF0000" fill-rule="nonzero" stroke="#FF0000" stroke-width="0.18375709197289086" stroke-linecap="butt" stroke-linejoin="miter" stroke-miterlimit="10" stroke-dasharray="" stroke-dashoffset="0" style="mix-blend-mode: normal" transform="matrix(1 0 0 1 3.88303 22.9086)" class="" fill-opacity="1"/><path d="M 31.844316482543945 36.10377502441406 L 31.844316482543945 45.8102912902832 C 43.69321060180664 46.21666717529297 53.22932434082031 45.18763732910156 60.452659606933594 42.72320556640625 L 60.452659606933594 33.035438537597656 C 53.835933685302734 35.08100128173828 44.2998161315918 36.10377883911133 31.844316482543945 36.10377883911133 L 31.844316482543945 36.10377502441406 Z " fill="#FF0000" fill-rule="nonzero" stroke="#FF0000" stroke-width="0.18375709197289086" stroke-linecap="butt" stroke-linejoin="miter" stroke-miterlimit="10" stroke-dasharray="" stroke-dashoffset="0" style="mix-blend-mode: normal" transform="matrix(1 0 0 1 3.88303 34.9596)" class="" fill-opacity="1"/><path d="M 54.458961486816406 61.74330139160156 L 54.458961486816406 78.3429946899414 C 74.72247314453125 79.03797912597656 91.03076934814453 77.27816009521484 103.38384246826172 73.06359100341797 L 103.38384246826172 56.49595260620117 C 92.06816101074219 59.99418258666992 75.7598648071289 61.74330139160156 54.458961486816406 61.74330139160156 L 54.458961486816406 61.74330139160156 Z " fill="#96F2FF" fill-rule="nonzero" stroke="none" stroke-width="0.35731809418586047" stroke-linecap="butt" stroke-linejoin="miter" stroke-miterlimit="10" stroke-dasharray="" stroke-dashoffset="0" style="mix-blend-mode: normal" transform="matrix(0.999848 -0.0174524 0.0174524 0.999848 -31.313 -33.0954)" class="" fill-opacity="1"/><path d="M 31.844316482543945 74.2640380859375 " stroke="#FF0000" fill="none" stroke-width="0.3573178705941512" class="" transform="matrix(1 0 0 1 3.88303 10.8576)"/><path d="M 31.844316482543945 76.28438568115234 L 46.14848709106445 94.91088104248047 " stroke="none" fill="#96F2FF" stroke-width="0.3573178705941512" class="" transform="matrix(1 0 0 1 3.88303 10.8576)"/><path d="M 31.844316482543945 76.28438568115234 L 44.890769958496094 92.81211853027344 " stroke="none" fill="#96F2FF" stroke-width="0.3573178705941512" class="" transform="matrix(1 0 0 1 3.88303 10.8576)"/><path d="M 31.844316482543945 84.5482406616211 L 29.270118713378906 80.3507308959961 " stroke="none" fill="#96F2FF" stroke-width="0.3573178705941512" class="" transform="matrix(1 0 0 1 3.88303 10.8576)"/><path d="M 31.844310760498047 74.2640380859375 L 46.14848709106445 98.44104766845703 " stroke="none" fill="#96F2FF" stroke-width="0.3573178705941512" class="" transform="matrix(1 0 0 1 3.88303 10.8576)"/><path d="M 31.844324111938477 74.26406860351562 L 46.148502349853516 94.91093444824219 L 60.45267868041992 69.99907684326172 C 57.29271697998047 72.84239959716797 47.75659942626953 74.26406860351562 31.844324111938477 74.26406860351562 Z " stroke="#96F2FF" fill="#96F2FF" stroke-width="0.35731809418586047" class="" transform="matrix(0.999848 0.0174524 -0.0174524 0.999848 5.32304 8.90358)"/><path d="M 64.27318572998047 169.49819946289062 " stroke="#000000" fill="#000E57" stroke-width="0.39813419971027053" class="" transform="matrix(1 0 0 1 -21.3939 -40.2334)"/><path d="M 36.61468505859375 93.14729309082031 " stroke="#000000" fill="#000E57" stroke-width="0.39813419971027053" class="" transform="matrix(1 0 0 1 -21.3939 -40.2334)"/><g transform="matrix(1 0 0 1 100.999 -2.99541)"><path d="M21.800000 87L21.800000 87L21.800000 70Q21.800000 68 21.200000 67.450000Q20.600000 66.900000 18.700000 66.900000L18.700000 66.900000L11.900000 66.900000Q4 66.900000 4 59L4 59L4 41.700000Q4 33.800000 11.900000 33.800000L11.900000 33.800000L20.700000 33.800000Q28.600000 33.800000 28.600000 41.700000L28.600000 41.700000L28.600000 51.300000L21.700000 51.300000L21.700000 42.800000Q21.700000 40.800000 21.150000 40.250000Q20.600000 39.700000 18.600000 39.700000L18.600000 39.700000L14 39.700000Q12 39.700000 11.450000 40.250000Q10.900000 40.800000 10.900000 42.800000L10.900000 42.800000L10.900000 57.900000Q10.900000 59.800000 11.450000 60.400000Q12 61 14 61L14 61L20.800000 61Q28.700000 61 28.700000 68.900000L28.700000 68.900000L28.700000 88.100000Q28.700000 96 20.800000 96L20.800000 96L12.100000 96Q4.200000 96 4.200000 88.100000L4.200000 88.100000L4.200000 78.500000L11.100000 78.500000L11.100000 87Q11.100000 89 11.650000 89.550000Q12.200000 90.100000 14.200000 90.100000L14.200000 90.100000L18.700000 90.100000Q20.600000 90.100000 21.200000 89.550000Q21.800000 89 21.800000 87Z" opacity="1" fill="#000E57" fill-opacity="1" stroke="none" stroke-opacity="1" stroke-width="0" transform="matrix(1 0 0 1 0 0)"/><path d="M63.200000 41.700000L63.200000 52.200000L56.300000 52.200000L56.300000 42.800000Q56.300000 40.800000 55.700000 40.250000Q55.100000 39.700000 53.200000 39.700000L53.200000 39.700000L47.700000 39.700000Q45.700000 39.700000 45.150000 40.250000Q44.600000 40.800000 44.600000 42.800000L44.600000 42.800000L44.600000 87.100000Q44.600000 89 45.150000 89.600000Q45.700000 90.200000 47.700000 90.200000L47.700000 90.200000L53.200000 90.200000Q55.100000 90.200000 55.700000 89.600000Q56.300000 89 56.300000 87.100000L56.300000 87.100000L56.300000 77.700000L63.200000 77.700000L63.200000 88.200000Q63.200000 96.100000 55.300000 96.100000L55.300000 96.100000L45.600000 96.100000Q37.700000 96.100000 37.700000 88.200000L37.700000 88.200000L37.700000 41.700000Q37.700000 33.800000 45.600000 33.800000L45.600000 33.800000L55.300000 33.800000Q63.200000 33.800000 63.200000 41.700000L63.200000 41.700000Z" opacity="1" fill="#000E57" fill-opacity="1" stroke="none" stroke-opacity="1" stroke-width="0" transform="matrix(1 0 0 1 0 0)" class=""/><path d="M85.400000 70L79.500000 70L79.500000 96L72.700000 96L72.700000 33.800000L90.800000 33.800000Q98.700000 33.800000 98.700000 41.700000L98.700000 41.700000L98.700000 62.100000Q98.700000 69.200000 92.500000 69.900000L92.500000 69.900000L101.900000 96L94.500000 96L85.400000 70ZM88.800000 39.700000L79.500000 39.700000L79.500000 64.100000L88.800000 64.100000Q90.800000 64.100000 91.350000 63.550000Q91.900000 63 91.900000 61L91.900000 61L91.900000 42.800000Q91.900000 40.800000 91.350000 40.250000Q90.800000 39.700000 88.800000 39.700000L88.800000 39.700000Z" opacity="1" fill="#000E57" fill-opacity="1" stroke="none" stroke-opacity="1" stroke-width="0" class="" transform="matrix(1 0 0 1 0 0)"/><path d="M128 87L128 33.800000L134.800000 33.800000L134.800000 88.100000Q134.800000 96 126.900000 96L126.900000 96L116.700000 96Q108.800000 96 108.800000 88.100000L108.800000 88.100000L108.800000 33.800000L115.600000 33.800000L115.600000 87Q115.600000 89 116.200000 89.550000Q116.800000 90.100000 118.700000 90.100000L118.700000 90.100000L124.900000 90.100000Q126.800000 90.100000 127.400000 89.550000Q128 89 128 87L128 87Z" opacity="1" fill="#000E57" fill-opacity="1" stroke="none" stroke-opacity="1" stroke-width="0" transform="matrix(1 0 0 1 0 0)" class=""/><path d="M146.500000 96L146.500000 33.800000L153.300000 33.800000L153.300000 96L146.500000 96Z" opacity="1" fill="#000E57" fill-opacity="1" stroke="none" stroke-opacity="1" stroke-width="0" transform="matrix(1 0 0 1 0 0)" class=""/><path d="M165.300000 96L165.300000 33.800000L185 33.800000Q192.900000 33.800000 192.900000 41.700000L192.900000 41.700000L192.900000 88.100000Q192.900000 96 185 96L185 96L165.300000 96ZM186 87L186 87L186 42.800000Q186 40.800000 185.400000 40.250000Q184.800000 39.700000 182.900000 39.700000L182.900000 39.700000L172.200000 39.700000L172.200000 90.100000L182.900000 90.100000Q184.800000 90.100000 185.400000 89.550000Q186 89 186 87Z" opacity="1" fill="#000E57" fill-opacity="1" stroke="none" stroke-opacity="1" stroke-width="0" transform="matrix(1 0 0 1 0 0)" class=""/></g><g transform="matrix(1 0 0 1 103.999 93.5656)"><path d="M9.492188 16L8.203125 16L6.870117 12.594238L2.578125 12.594238L1.259766 16L0 16L4.233398 5.248047L5.280762 5.248047L9.492188 16ZM3.017578 11.473633L6.481934 11.473633L5.236816 8.155762Q4.995117 7.525879 4.738770 6.610352L4.738770 6.610352Q4.577637 7.313477 4.277344 8.155762L4.277344 8.155762L3.017578 11.473633Z" opacity="1" fill="#000E57" fill-opacity="1" stroke="none" stroke-opacity="1" stroke-width="0"/><path d="" opacity="1" fill="#000E57" fill-opacity="1" stroke="none" stroke-opacity="1" stroke-width="0"/><path d="M20.903320 13.150879L20.903320 13.150879Q20.903320 14.564453 19.877930 15.355469Q18.852539 16.146484 17.094727 16.146484L17.094727 16.146484Q15.190430 16.146484 14.165039 15.655762L14.165039 15.655762L14.165039 14.454590Q14.824219 14.732910 15.600586 14.894043Q16.376953 15.055176 17.138672 15.055176L17.138672 15.055176Q18.383789 15.055176 19.013672 14.582764Q19.643555 14.110352 19.643555 13.268066L19.643555 13.268066Q19.643555 12.711426 19.420166 12.356201Q19.196777 12.000977 18.673096 11.700684Q18.149414 11.400391 17.080078 11.019531L17.080078 11.019531Q15.585938 10.484863 14.945068 9.752441Q14.304199 9.020020 14.304199 7.840820L14.304199 7.840820Q14.304199 6.603027 15.234375 5.870605Q16.164551 5.138184 17.695313 5.138184L17.695313 5.138184Q19.291992 5.138184 20.632324 5.724121L20.632324 5.724121L20.244141 6.808105Q18.918457 6.251465 17.666016 6.251465L17.666016 6.251465Q16.677246 6.251465 16.120605 6.676270Q15.563965 7.101074 15.563965 7.855469L15.563965 7.855469Q15.563965 8.412109 15.769043 8.767334Q15.974121 9.122559 16.461182 9.419189Q16.948242 9.715820 17.951660 10.074707L17.951660 10.074707Q19.636230 10.675293 20.269775 11.363770Q20.903320 12.052246 20.903320 13.150879Z" opacity="1" fill="#000E57" fill-opacity="1" stroke="none" stroke-opacity="1" stroke-width="0"/><path d="M26.118164 16.146484L26.118164 16.146484Q24.375000 16.146484 23.419189 15.073486Q22.463379 14.000488 22.463379 12.037598L22.463379 12.037598Q22.463379 10.023438 23.433838 8.924805Q24.404297 7.826172 26.198730 7.826172L26.198730 7.826172Q26.777344 7.826172 27.355957 7.950684Q27.934570 8.075195 28.264160 8.243652L28.264160 8.243652L27.890625 9.276367Q27.487793 9.115234 27.011719 9.009033Q26.535645 8.902832 26.169434 8.902832L26.169434 8.902832Q23.723145 8.902832 23.723145 12.022949L23.723145 12.022949Q23.723145 13.502441 24.320068 14.293457Q24.916992 15.084473 26.088867 15.084473L26.088867 15.084473Q27.092285 15.084473 28.146973 14.652344L28.146973 14.652344L28.146973 15.729004Q27.341309 16.146484 26.118164 16.146484Z" opacity="1" fill="#000E57" fill-opacity="1" stroke="none" stroke-opacity="1" stroke-width="0"/><path d="M35.888672 16L34.987793 16L34.746094 14.857422L34.687500 14.857422Q34.086914 15.611816 33.489990 15.879150Q32.893066 16.146484 31.999512 16.146484L31.999512 16.146484Q30.805664 16.146484 30.128174 15.531250Q29.450684 14.916016 29.450684 13.780762L29.450684 13.780762Q29.450684 11.349121 33.339844 11.231934L33.339844 11.231934L34.702148 11.187988L34.702148 10.689941Q34.702148 9.745117 34.295654 9.294678Q33.889160 8.844238 32.995605 8.844238L32.995605 8.844238Q31.992188 8.844238 30.725098 9.459473L30.725098 9.459473L30.351563 8.529297Q30.944824 8.207031 31.651611 8.023926Q32.358398 7.840820 33.068848 7.840820L33.068848 7.840820Q34.504395 7.840820 35.196533 8.478027Q35.888672 9.115234 35.888672 10.521484L35.888672 10.521484L35.888672 16ZM32.241211 15.143066L32.241211 15.143066Q33.376465 15.143066 34.024658 14.520508Q34.672852 13.897949 34.672852 12.777344L34.672852 12.777344L34.672852 12.052246L33.457031 12.103516Q32.006836 12.154785 31.365967 12.553955Q30.725098 12.953125 30.725098 13.795410L30.725098 13.795410Q30.725098 14.454590 31.124268 14.798828Q31.523438 15.143066 32.241211 15.143066Z" opacity="1" fill="#000E57" fill-opacity="1" stroke="none" stroke-opacity="1" stroke-width="0"/><path d="M39.609375 4.603516L39.609375 16L38.393555 16L38.393555 4.603516L39.609375 4.603516Z" opacity="1" fill="#000E57" fill-opacity="1" stroke="none" stroke-opacity="1" stroke-width="0" class=""/><path d="M48.024902 16L47.124023 16L46.882324 14.857422L46.823730 14.857422Q46.223145 15.611816 45.626221 15.879150Q45.029297 16.146484 44.135742 16.146484L44.135742 16.146484Q42.941895 16.146484 42.264404 15.531250Q41.586914 14.916016 41.586914 13.780762L41.586914 13.780762Q41.586914 11.349121 45.476074 11.231934L45.476074 11.231934L46.838379 11.187988L46.838379 10.689941Q46.838379 9.745117 46.431885 9.294678Q46.025391 8.844238 45.131836 8.844238L45.131836 8.844238Q44.128418 8.844238 42.861328 9.459473L42.861328 9.459473L42.487793 8.529297Q43.081055 8.207031 43.787842 8.023926Q44.494629 7.840820 45.205078 7.840820L45.205078 7.840820Q46.640625 7.840820 47.332764 8.478027Q48.024902 9.115234 48.024902 10.521484L48.024902 10.521484L48.024902 16ZM44.377441 15.143066L44.377441 15.143066Q45.512695 15.143066 46.160889 14.520508Q46.809082 13.897949 46.809082 12.777344L46.809082 12.777344L46.809082 12.052246L45.593262 12.103516Q44.143066 12.154785 43.502197 12.553955Q42.861328 12.953125 42.861328 13.795410L42.861328 13.795410Q42.861328 14.454590 43.260498 14.798828Q43.659668 15.143066 44.377441 15.143066Z" opacity="1" fill="#000E57" fill-opacity="1" stroke="none" stroke-opacity="1" stroke-width="0" class=""/><path d="" opacity="1" fill="#000E57" fill-opacity="1" stroke="none" stroke-opacity="1" stroke-width="0"/><path d="M57.634277 16.146484L57.634277 16.146484Q55.891113 16.146484 54.935303 15.073486Q53.979492 14.000488 53.979492 12.037598L53.979492 12.037598Q53.979492 10.023438 54.949951 8.924805Q55.920410 7.826172 57.714844 7.826172L57.714844 7.826172Q58.293457 7.826172 58.872070 7.950684Q59.450684 8.075195 59.780273 8.243652L59.780273 8.243652L59.406738 9.276367Q59.003906 9.115234 58.527832 9.009033Q58.051758 8.902832 57.685547 8.902832L57.685547 8.902832Q55.239258 8.902832 55.239258 12.022949L55.239258 12.022949Q55.239258 13.502441 55.836182 14.293457Q56.433105 15.084473 57.604980 15.084473L57.604980 15.084473Q58.608398 15.084473 59.663086 14.652344L59.663086 14.652344L59.663086 15.729004Q58.857422 16.146484 57.634277 16.146484Z" opacity="1" fill="#000E57" fill-opacity="1" stroke="none" stroke-opacity="1" stroke-width="0" class=""/><path d="M62.783203 4.603516L62.783203 16L61.567383 16L61.567383 4.603516L62.783203 4.603516Z" opacity="1" fill="#000E57" fill-opacity="1" stroke="none" stroke-opacity="1" stroke-width="0" class=""/><path d="M66.577148 7.972656L66.577148 16L65.361328 16L65.361328 7.972656L66.577148 7.972656ZM65.258789 5.797363L65.258789 5.797363Q65.258789 5.379883 65.463867 5.185791Q65.668945 4.991699 65.976563 4.991699L65.976563 4.991699Q66.269531 4.991699 66.481934 5.189453Q66.694336 5.387207 66.694336 5.797363L66.694336 5.797363Q66.694336 6.207520 66.481934 6.408936Q66.269531 6.610352 65.976563 6.610352L65.976563 6.610352Q65.668945 6.610352 65.463867 6.408936Q65.258789 6.207520 65.258789 5.797363Z" opacity="1" fill="#000E57" fill-opacity="1" stroke="none" stroke-opacity="1" stroke-width="0" class=""/><path d="M72.546387 16.146484L72.546387 16.146484Q70.766602 16.146484 69.737549 15.062500Q68.708496 13.978516 68.708496 12.052246L68.708496 12.052246Q68.708496 10.111328 69.664307 8.968750Q70.620117 7.826172 72.231445 7.826172L72.231445 7.826172Q73.740234 7.826172 74.619141 8.818604Q75.498047 9.811035 75.498047 11.437012L75.498047 11.437012L75.498047 12.206055L69.968262 12.206055Q70.004883 13.619629 70.682373 14.352051Q71.359863 15.084473 72.590332 15.084473L72.590332 15.084473Q73.886719 15.084473 75.153809 14.542480L75.153809 14.542480L75.153809 15.626465Q74.509277 15.904785 73.934326 16.025635Q73.359375 16.146484 72.546387 16.146484ZM72.216797 8.844238L72.216797 8.844238Q71.250000 8.844238 70.675049 9.474121Q70.100098 10.104004 69.997559 11.217285L69.997559 11.217285L74.194336 11.217285Q74.194336 10.067383 73.681641 9.455811Q73.168945 8.844238 72.216797 8.844238Z" opacity="1" fill="#000E57" fill-opacity="1" stroke="none" stroke-opacity="1" stroke-width="0"/><path d="M84.279785 16L83.063965 16L83.063965 10.807129Q83.063965 9.825684 82.617188 9.342285Q82.170410 8.858887 81.218262 8.858887L81.218262 8.858887Q79.958496 8.858887 79.372559 9.540039Q78.786621 10.221191 78.786621 11.788574L78.786621 11.788574L78.786621 16L77.570801 16L77.570801 7.972656L78.559570 7.972656L78.757324 9.071289L78.815918 9.071289Q79.189453 8.478027 79.863281 8.152100Q80.537109 7.826172 81.364746 7.826172L81.364746 7.826172Q82.814941 7.826172 83.547363 8.525635Q84.279785 9.225098 84.279785 10.763184L84.279785 10.763184L84.279785 16Z" opacity="1" fill="#000E57" fill-opacity="1" stroke="none" stroke-opacity="1" stroke-width="0" class=""/><path d="M89.370117 15.143066L89.370117 15.143066Q89.692383 15.143066 89.992676 15.095459Q90.292969 15.047852 90.468750 14.996582L90.468750 14.996582L90.468750 15.926758Q90.270996 16.021973 89.886475 16.084229Q89.501953 16.146484 89.194336 16.146484L89.194336 16.146484Q86.865234 16.146484 86.865234 13.692871L86.865234 13.692871L86.865234 8.917480L85.715332 8.917480L85.715332 8.331543L86.865234 7.826172L87.377930 6.112305L88.081055 6.112305L88.081055 7.972656L90.410156 7.972656L90.410156 8.917480L88.081055 8.917480L88.081055 13.641602Q88.081055 14.366699 88.425293 14.754883Q88.769531 15.143066 89.370117 15.143066Z" opacity="1" fill="#000E57" fill-opacity="1" stroke="none" stroke-opacity="1" stroke-width="0" class=""/><path d="" opacity="1" fill="#000E57" fill-opacity="1" stroke="none" stroke-opacity="1" stroke-width="0"/><path d="M97.185059 4.603516L97.185059 16L95.969238 16L95.969238 4.603516L97.185059 4.603516Z" opacity="1" fill="#000E57" fill-opacity="1" stroke="none" stroke-opacity="1" stroke-width="0"/><path d="M100.979004 7.972656L100.979004 16L99.763184 16L99.763184 7.972656L100.979004 7.972656ZM99.660645 5.797363L99.660645 5.797363Q99.660645 5.379883 99.865723 5.185791Q100.070801 4.991699 100.378418 4.991699L100.378418 4.991699Q100.671387 4.991699 100.883789 5.189453Q101.096191 5.387207 101.096191 5.797363L101.096191 5.797363Q101.096191 6.207520 100.883789 6.408936Q100.671387 6.610352 100.378418 6.610352L100.378418 6.610352Q100.070801 6.610352 99.865723 6.408936Q99.660645 6.207520 99.660645 5.797363Z" opacity="1" fill="#000E57" fill-opacity="1" stroke="none" stroke-opacity="1" stroke-width="0" class=""/><path d="M107.292480 7.840820L107.292480 7.840820Q108.874512 7.840820 109.749756 8.921143Q110.625000 10.001465 110.625000 11.979004L110.625000 11.979004Q110.625000 13.956543 109.742432 15.051514Q108.859863 16.146484 107.292480 16.146484L107.292480 16.146484Q106.508789 16.146484 105.860596 15.857178Q105.212402 15.567871 104.772949 14.967285L104.772949 14.967285L104.685059 14.967285L104.428711 16L103.557129 16L103.557129 4.603516L104.772949 4.603516L104.772949 7.372070Q104.772949 8.302246 104.714355 9.041992L104.714355 9.041992L104.772949 9.041992Q105.622559 7.840820 107.292480 7.840820ZM107.116699 8.858887L107.116699 8.858887Q105.871582 8.858887 105.322266 9.572998Q104.772949 10.287109 104.772949 11.979004L104.772949 11.979004Q104.772949 13.670898 105.336914 14.399658Q105.900879 15.128418 107.145996 15.128418L107.145996 15.128418Q108.266602 15.128418 108.815918 14.311768Q109.365234 13.495117 109.365234 11.964355L109.365234 11.964355Q109.365234 10.396973 108.815918 9.627930Q108.266602 8.858887 107.116699 8.858887Z" opacity="1" fill="#000E57" fill-opacity="1" stroke="none" stroke-opacity="1" stroke-width="0" class=""/><path d="M116.411133 7.826172L116.411133 7.826172Q116.945801 7.826172 117.370605 7.914063L117.370605 7.914063L117.202148 9.041992Q116.704102 8.932129 116.323242 8.932129L116.323242 8.932129Q115.349121 8.932129 114.656982 9.723145Q113.964844 10.514160 113.964844 11.693359L113.964844 11.693359L113.964844 16L112.749023 16L112.749023 7.972656L113.752441 7.972656L113.891602 9.459473L113.950195 9.459473Q114.396973 8.675781 115.026855 8.250977Q115.656738 7.826172 116.411133 7.826172Z" opacity="1" fill="#000E57" fill-opacity="1" stroke="none" stroke-opacity="1" stroke-width="0"/><path d="M124.709473 16L123.808594 16L123.566895 14.857422L123.508301 14.857422Q122.907715 15.611816 122.310791 15.879150Q121.713867 16.146484 120.820313 16.146484L120.820313 16.146484Q119.626465 16.146484 118.948975 15.531250Q118.271484 14.916016 118.271484 13.780762L118.271484 13.780762Q118.271484 11.349121 122.160645 11.231934L122.160645 11.231934L123.522949 11.187988L123.522949 10.689941Q123.522949 9.745117 123.116455 9.294678Q122.709961 8.844238 121.816406 8.844238L121.816406 8.844238Q120.812988 8.844238 119.545898 9.459473L119.545898 9.459473L119.172363 8.529297Q119.765625 8.207031 120.472412 8.023926Q121.179199 7.840820 121.889648 7.840820L121.889648 7.840820Q123.325195 7.840820 124.017334 8.478027Q124.709473 9.115234 124.709473 10.521484L124.709473 10.521484L124.709473 16ZM121.062012 15.143066L121.062012 15.143066Q122.197266 15.143066 122.845459 14.520508Q123.493652 13.897949 123.493652 12.777344L123.493652 12.777344L123.493652 12.052246L122.277832 12.103516Q120.827637 12.154785 120.186768 12.553955Q119.545898 12.953125 119.545898 13.795410L119.545898 13.795410Q119.545898 14.454590 119.945068 14.798828Q120.344238 15.143066 121.062012 15.143066Z" opacity="1" fill="#000E57" fill-opacity="1" stroke="none" stroke-opacity="1" stroke-width="0"/><path d="M130.876465 7.826172L130.876465 7.826172Q131.411133 7.826172 131.835938 7.914063L131.835938 7.914063L131.667480 9.041992Q131.169434 8.932129 130.788574 8.932129L130.788574 8.932129Q129.814453 8.932129 129.122314 9.723145Q128.430176 10.514160 128.430176 11.693359L128.430176 11.693359L128.430176 16L127.214355 16L127.214355 7.972656L128.217773 7.972656L128.356934 9.459473L128.415527 9.459473Q128.862305 8.675781 129.492188 8.250977Q130.122070 7.826172 130.876465 7.826172Z" opacity="1" fill="#000E57" fill-opacity="1" stroke="none" stroke-opacity="1" stroke-width="0"/><path d="M135.300293 16.043945L132.062988 7.972656L133.366699 7.972656L135.124512 12.550293Q135.703125 14.117676 135.842285 14.813477L135.842285 14.813477L135.900879 14.813477Q135.996094 14.439941 136.300049 13.535400Q136.604004 12.630859 138.288574 7.972656L138.288574 7.972656L139.592285 7.972656L136.142578 17.113281Q135.629883 18.468262 134.945068 19.035889Q134.260254 19.603516 133.264160 19.603516L133.264160 19.603516Q132.707520 19.603516 132.165527 19.479004L132.165527 19.479004L132.165527 18.504883Q132.568359 18.592773 133.066406 18.592773L133.066406 18.592773Q134.318848 18.592773 134.853516 17.186523L134.853516 17.186523L135.300293 16.043945Z" opacity="1" fill="#000E57" fill-opacity="1" stroke="none" stroke-opacity="1" stroke-width="0"/><path d="" opacity="1" fill="#000E57" fill-opacity="1" stroke="none" stroke-opacity="1" stroke-width="0"/><path d="M148.410645 7.972656L148.410645 8.917480L146.367188 8.917480L146.367188 16L145.151367 16L145.151367 8.917480L143.715820 8.917480L143.715820 8.368164L145.151367 7.928711L145.151367 7.481934Q145.151367 4.522949 147.736816 4.522949L147.736816 4.522949Q148.374023 4.522949 149.230957 4.779297L149.230957 4.779297L148.916016 5.753418Q148.212891 5.526367 147.714844 5.526367L147.714844 5.526367Q147.026367 5.526367 146.696777 5.984131Q146.367188 6.441895 146.367188 7.452637L146.367188 7.452637L146.367188 7.972656L148.410645 7.972656Z" opacity="1" fill="#000E57" fill-opacity="1" stroke="none" stroke-opacity="1" stroke-width="0"/><path d="M156.804199 11.979004L156.804199 11.979004Q156.804199 13.941895 155.815430 15.044189Q154.826660 16.146484 153.083496 16.146484L153.083496 16.146484Q152.006836 16.146484 151.171875 15.641113Q150.336914 15.135742 149.882813 14.190918Q149.428711 13.246094 149.428711 11.979004L149.428711 11.979004Q149.428711 10.016113 150.410156 8.921143Q151.391602 7.826172 153.134766 7.826172L153.134766 7.826172Q154.819336 7.826172 155.811768 8.946777Q156.804199 10.067383 156.804199 11.979004ZM150.688477 11.979004L150.688477 11.979004Q150.688477 13.517090 151.303711 14.322754Q151.918945 15.128418 153.112793 15.128418L153.112793 15.128418Q154.306641 15.128418 154.925537 14.326416Q155.544434 13.524414 155.544434 11.979004L155.544434 11.979004Q155.544434 10.448242 154.925537 9.653564Q154.306641 8.858887 153.098145 8.858887L153.098145 8.858887Q151.904297 8.858887 151.296387 9.642578Q150.688477 10.426270 150.688477 11.979004Z" opacity="1" fill="#000E57" fill-opacity="1" stroke="none" stroke-opacity="1" stroke-width="0"/><path d="M162.597656 7.826172L162.597656 7.826172Q163.132324 7.826172 163.557129 7.914063L163.557129 7.914063L163.388672 9.041992Q162.890625 8.932129 162.509766 8.932129L162.509766 8.932129Q161.535645 8.932129 160.843506 9.723145Q160.151367 10.514160 160.151367 11.693359L160.151367 11.693359L160.151367 16L158.935547 16L158.935547 7.972656L159.938965 7.972656L160.078125 9.459473L160.136719 9.459473Q160.583496 8.675781 161.213379 8.250977Q161.843262 7.826172 162.597656 7.826172Z" opacity="1" fill="#000E57" fill-opacity="1" stroke="none" stroke-opacity="1" stroke-width="0" class=""/><path d="" opacity="1" fill="#000E57" fill-opacity="1" stroke="none" stroke-opacity="1" stroke-width="0"/><path d="M177.158203 16L175.869141 16L174.536133 12.594238L170.244141 12.594238L168.925781 16L167.666016 16L171.899414 5.248047L172.946777 5.248047L177.158203 16ZM170.683594 11.473633L174.147949 11.473633L172.902832 8.155762Q172.661133 7.525879 172.404785 6.610352L172.404785 6.610352Q172.243652 7.313477 171.943359 8.155762L171.943359 8.155762L170.683594 11.473633Z" opacity="1" fill="#000E57" fill-opacity="1" stroke="none" stroke-opacity="1" stroke-width="0" class=""/><path d="M182.182617 16.146484L182.182617 16.146484Q181.398926 16.146484 180.750732 15.857178Q180.102539 15.567871 179.663086 14.967285L179.663086 14.967285L179.575195 14.967285Q179.663086 15.670410 179.663086 16.300293L179.663086 16.300293L179.663086 19.603516L178.447266 19.603516L178.447266 7.972656L179.436035 7.972656L179.604492 9.071289L179.663086 9.071289Q180.131836 8.412109 180.754395 8.119141Q181.376953 7.826172 182.182617 7.826172L182.182617 7.826172Q183.779297 7.826172 184.647217 8.917480Q185.515137 10.008789 185.515137 11.979004L185.515137 11.979004Q185.515137 13.956543 184.632568 15.051514Q183.750000 16.146484 182.182617 16.146484ZM182.006836 8.858887L182.006836 8.858887Q180.776367 8.858887 180.227051 9.540039Q179.677734 10.221191 179.663086 11.708008L179.663086 11.708008L179.663086 11.979004Q179.663086 13.670898 180.227051 14.399658Q180.791016 15.128418 182.036133 15.128418L182.036133 15.128418Q183.076172 15.128418 183.665771 14.286133Q184.255371 13.443848 184.255371 11.964355L184.255371 11.964355Q184.255371 10.462891 183.665771 9.660889Q183.076172 8.858887 182.006836 8.858887Z" opacity="1" fill="#000E57" fill-opacity="1" stroke="none" stroke-opacity="1" stroke-width="0"/><path d="M193.476563 16L192.575684 16L192.333984 14.857422L192.275391 14.857422Q191.674805 15.611816 191.077881 15.879150Q190.480957 16.146484 189.587402 16.146484L189.587402 16.146484Q188.393555 16.146484 187.716064 15.531250Q187.038574 14.916016 187.038574 13.780762L187.038574 13.780762Q187.038574 11.349121 190.927734 11.231934L190.927734 11.231934L192.290039 11.187988L192.290039 10.689941Q192.290039 9.745117 191.883545 9.294678Q191.477051 8.844238 190.583496 8.844238L190.583496 8.844238Q189.580078 8.844238 188.312988 9.459473L188.312988 9.459473L187.939453 8.529297Q188.532715 8.207031 189.239502 8.023926Q189.946289 7.840820 190.656738 7.840820L190.656738 7.840820Q192.092285 7.840820 192.784424 8.478027Q193.476563 9.115234 193.476563 10.521484L193.476563 10.521484L193.476563 16ZM189.829102 15.143066L189.829102 15.143066Q190.964355 15.143066 191.612549 14.520508Q192.260742 13.897949 192.260742 12.777344L192.260742 12.777344L192.260742 12.052246L191.044922 12.103516Q189.594727 12.154785 188.953857 12.553955Q188.312988 12.953125 188.312988 13.795410L188.312988 13.795410Q188.312988 14.454590 188.712158 14.798828Q189.111328 15.143066 189.829102 15.143066Z" opacity="1" fill="#000E57" fill-opacity="1" stroke="none" stroke-opacity="1" stroke-width="0"/><path d="M199.189453 16.146484L199.189453 16.146484Q197.446289 16.146484 196.490479 15.073486Q195.534668 14.000488 195.534668 12.037598L195.534668 12.037598Q195.534668 10.023438 196.505127 8.924805Q197.475586 7.826172 199.270020 7.826172L199.270020 7.826172Q199.848633 7.826172 200.427246 7.950684Q201.005859 8.075195 201.335449 8.243652L201.335449 8.243652L200.961914 9.276367Q200.559082 9.115234 200.083008 9.009033Q199.606934 8.902832 199.240723 8.902832L199.240723 8.902832Q196.794434 8.902832 196.794434 12.022949L196.794434 12.022949Q196.794434 13.502441 197.391357 14.293457Q197.988281 15.084473 199.160156 15.084473L199.160156 15.084473Q200.163574 15.084473 201.218262 14.652344L201.218262 14.652344L201.218262 15.729004Q200.412598 16.146484 199.189453 16.146484Z" opacity="1" fill="#000E57" fill-opacity="1" stroke="none" stroke-opacity="1" stroke-width="0"/><path d="M209.831543 16L208.615723 16L208.615723 10.807129Q208.615723 9.825684 208.168945 9.342285Q207.722168 8.858887 206.770020 8.858887L206.770020 8.858887Q205.502930 8.858887 204.920654 9.547363Q204.338379 10.235840 204.338379 11.803223L204.338379 11.803223L204.338379 16L203.122559 16L203.122559 4.603516L204.338379 4.603516L204.338379 8.053223Q204.338379 8.675781 204.279785 9.085938L204.279785 9.085938L204.353027 9.085938Q204.711914 8.507324 205.374756 8.174072Q206.037598 7.840820 206.887207 7.840820L206.887207 7.840820Q208.359375 7.840820 209.095459 8.540283Q209.831543 9.239746 209.831543 10.763184L209.831543 10.763184L209.831543 16Z" opacity="1" fill="#000E57" fill-opacity="1" stroke="none" stroke-opacity="1" stroke-width="0"/><path d="M215.720215 16.146484L215.720215 16.146484Q213.940430 16.146484 212.911377 15.062500Q211.882324 13.978516 211.882324 12.052246L211.882324 12.052246Q211.882324 10.111328 212.838135 8.968750Q213.793945 7.826172 215.405273 7.826172L215.405273 7.826172Q216.914063 7.826172 217.792969 8.818604Q218.671875 9.811035 218.671875 11.437012L218.671875 11.437012L218.671875 12.206055L213.142090 12.206055Q213.178711 13.619629 213.856201 14.352051Q214.533691 15.084473 215.764160 15.084473L215.764160 15.084473Q217.060547 15.084473 218.327637 14.542480L218.327637 14.542480L218.327637 15.626465Q217.683105 15.904785 217.108154 16.025635Q216.533203 16.146484 215.720215 16.146484ZM215.390625 8.844238L215.390625 8.844238Q214.423828 8.844238 213.848877 9.474121Q213.273926 10.104004 213.171387 11.217285L213.171387 11.217285L217.368164 11.217285Q217.368164 10.067383 216.855469 9.455811Q216.342773 8.844238 215.390625 8.844238Z" opacity="1" fill="#000E57" fill-opacity="1" stroke="none" stroke-opacity="1" stroke-width="0"/><path d="" opacity="1" fill="#000E57" fill-opacity="1" stroke="none" stroke-opacity="1" stroke-width="0"/><path d="M233.371582 10.543457L233.371582 10.543457Q233.371582 13.194824 231.932373 14.597412Q230.493164 16 227.790527 16L227.790527 16L224.824219 16L224.824219 5.291992L228.105469 5.291992Q230.603027 5.291992 231.987305 6.676270Q233.371582 8.060547 233.371582 10.543457ZM232.053223 10.587402L232.053223 10.587402Q232.053223 8.492676 231.002197 7.430664Q229.951172 6.368652 227.878418 6.368652L227.878418 6.368652L226.069336 6.368652L226.069336 14.923340L227.585449 14.923340Q229.812012 14.923340 230.932617 13.828369Q232.053223 12.733398 232.053223 10.587402Z" opacity="1" fill="#000E57" fill-opacity="1" stroke="none" stroke-opacity="1" stroke-width="0"/><path d="M239.238281 7.826172L239.238281 7.826172Q239.772949 7.826172 240.197754 7.914063L240.197754 7.914063L240.029297 9.041992Q239.531250 8.932129 239.150391 8.932129L239.150391 8.932129Q238.176270 8.932129 237.484131 9.723145Q236.791992 10.514160 236.791992 11.693359L236.791992 11.693359L236.791992 16L235.576172 16L235.576172 7.972656L236.579590 7.972656L236.718750 9.459473L236.777344 9.459473Q237.224121 8.675781 237.854004 8.250977Q238.483887 7.826172 239.238281 7.826172Z" opacity="1" fill="#000E57" fill-opacity="1" stroke="none" stroke-opacity="1" stroke-width="0" class=""/><path d="M241.611328 7.972656L242.841797 7.972656L242.841797 13.180176Q242.841797 14.161621 243.288574 14.645020Q243.735352 15.128418 244.687500 15.128418L244.687500 15.128418Q245.947266 15.128418 246.529541 14.439941Q247.111816 13.751465 247.111816 12.191406L247.111816 12.191406L247.111816 7.972656L248.327637 7.972656L248.327637 16L247.324219 16L247.148438 14.923340L247.082520 14.923340Q246.708984 15.516602 246.046143 15.831543Q245.383301 16.146484 244.533691 16.146484L244.533691 16.146484Q243.068848 16.146484 242.340088 15.450684Q241.611328 14.754883 241.611328 13.224121L241.611328 13.224121L241.611328 7.972656Z" opacity="1" fill="#000E57" fill-opacity="1" stroke="none" stroke-opacity="1" stroke-width="0" class=""/><path d="M252.121582 7.972656L252.121582 16L250.905762 16L250.905762 7.972656L252.121582 7.972656ZM250.803223 5.797363L250.803223 5.797363Q250.803223 5.379883 251.008301 5.185791Q251.213379 4.991699 251.520996 4.991699L251.520996 4.991699Q251.813965 4.991699 252.026367 5.189453Q252.238770 5.387207 252.238770 5.797363L252.238770 5.797363Q252.238770 6.207520 252.026367 6.408936Q251.813965 6.610352 251.520996 6.610352L251.520996 6.610352Q251.213379 6.610352 251.008301 6.408936Q250.803223 6.207520 250.803223 5.797363Z" opacity="1" fill="#000E57" fill-opacity="1" stroke="none" stroke-opacity="1" stroke-width="0" class=""/><path d="M260.324707 16L260.163574 14.923340L260.097656 14.923340Q259.255371 16.146484 257.578125 16.146484L257.578125 16.146484Q256.003418 16.146484 255.128174 15.069824Q254.252930 13.993164 254.252930 12.008301L254.252930 12.008301Q254.252930 10.023438 255.131836 8.924805Q256.010742 7.826172 257.578125 7.826172L257.578125 7.826172Q259.211426 7.826172 260.083008 9.012695L260.083008 9.012695L260.178223 9.012695L260.126953 8.434082L260.097656 7.870117L260.097656 4.603516L261.313477 4.603516L261.313477 16L260.324707 16ZM257.731934 15.128418L257.731934 15.128418Q258.977051 15.128418 259.537354 14.450928Q260.097656 13.773438 260.097656 12.264648L260.097656 12.264648L260.097656 12.008301Q260.097656 10.301758 259.530029 9.572998Q258.962402 8.844238 257.717285 8.844238L257.717285 8.844238Q256.647949 8.844238 256.080322 9.675537Q255.512695 10.506836 255.512695 12.022949L255.512695 12.022949Q255.512695 13.561035 256.076660 14.344727Q256.640625 15.128418 257.731934 15.128418Z" opacity="1" fill="#000E57" fill-opacity="1" stroke="none" stroke-opacity="1" stroke-width="0" class=""/></g></g>
            </g>
            <g class="foreground-layers">
                <g class="layer guides locked" style="display:none"/>
            </g>
        </g>
    
<meta xmlns="http://www.w3.org/1999/xhtml" id="page-properties" xmlns:jvs="http://www.janvas.com/ns"><jvs:property name="width" value="380"></jvs:property><jvs:property name="height" value="130"></jvs:property><jvs:property name="unitKey" value="PIXEL"></jvs:property><jvs:property name="drawingScale" value="1"></jvs:property><jvs:property name="fixedDecimals" value="2"></jvs:property><jvs:property name="showGrid" value="false"></jvs:property><jvs:property name="showRulers" value="true"></jvs:property><jvs:property name="gridStep" value="10"></jvs:property></meta></svg></svg>