<svg xmlns="http://www.w3.org/2000/svg" xmlns:xlink="http://www.w3.org/1999/xlink" width="250" height="430" data-version="6.2"><defs>
    </defs><svg class="page-2D showed" xmlns="http://www.w3.org/2000/svg" x="0px" y="0" width="250" height="430" data-width="250" data-height="430" viewBox="0 0 250 430">
    <g class="content">
            <g class="layers" id="IDI_18ktyzg1">
                <g transform="matrix(1 0 0 1 0 0)" name="Layer 1" data-color="#ff7f00" class="layer selected"><path d="M 309.5888671875 250.9210968017578 C 309.5888671875 315.1930847167969 258.5082702636719 367.29583740234375 195.49717712402344 367.29583740234375 C 132.486083984375 367.29583740234375 81.40548706054688 315.1930847167969 81.40548706054688 250.9210968017578 C 81.40548706054688 186.64910888671875 132.486083984375 134.54635620117188 195.49717712402344 134.54635620117188 C 258.5082702636719 134.54635620117188 309.5888671875 186.64910888671875 309.5888671875 250.9210968017578 Z " stroke="none" fill="#000E57" stroke-width="1.112531577274735" transform="matrix(1 0 0 1 -70.4265 -125.529)" class=""/><path d="M 204.06932067871094 432.94476318359375 C 351.5513000488281 252.95262145996094 351.5513000488281 144.11766052246094 204.06932067871094 106.43983459472656 C 55.34804916381836 148.51339721679688 55.34804916381836 257.348388671875 204.06932067871094 432.94476318359375 Z " fill="#000E57" fill-rule="nonzero" stroke="none" stroke-width="1.145145656493895" stroke-linecap="butt" stroke-linejoin="miter" stroke-miterlimit="10" stroke-dasharray="" stroke-dashoffset="0" style="mix-blend-mode: normal" transform="matrix(1 0 0 1 -78.0325 -93.3839)" class=""/><path d="M 88.98460388183594 100.8870849609375 L 88.98460388183594 128.01058959960938 C 122.09471893310547 129.1461639404297 148.74208068847656 126.27069854736328 168.92669677734375 119.3841781616211 L 168.92669677734375 92.31304168701172 C 150.43716430664062 98.02908325195312 123.78978729248047 100.88709259033203 88.98460388183594 100.88709259033203 L 88.98460388183594 100.8870849609375 Z " fill="#FF0000" fill-rule="nonzero" stroke="#FF0000" stroke-width="0.5134840652141671" stroke-linecap="butt" stroke-linejoin="miter" stroke-miterlimit="10" stroke-dasharray="" stroke-dashoffset="0" style="mix-blend-mode: normal" transform="matrix(1 0 0 1 -2.30848 23.2732)" class="" fill-opacity="1"/><path d="M 88.98460388183594 100.88709259033203 L 88.98460388183594 128.01058959960938 C 122.09471893310547 129.14617919921875 148.74208068847656 126.27069854736328 168.92669677734375 119.38418579101562 L 168.92669677734375 92.31304931640625 C 150.43716430664062 98.02908325195312 123.78978729248047 100.88710021972656 88.98460388183594 100.88710021972656 L 88.98460388183594 100.88709259033203 Z " fill="#FF0000" fill-rule="nonzero" stroke="#FF0000" stroke-width="0.5134840652141671" stroke-linecap="butt" stroke-linejoin="miter" stroke-miterlimit="10" stroke-dasharray="" stroke-dashoffset="0" style="mix-blend-mode: normal" transform="matrix(1 0 0 1 -2.30848 56.9482)" class="" fill-opacity="1"/><path d="M 88.98460388183594 100.8870620727539 L 88.98460388183594 128.01058959960938 C 122.09471893310547 129.14614868164062 148.74208068847656 126.27067565917969 168.92669677734375 119.38416290283203 L 168.92669677734375 92.31302642822266 C 150.43716430664062 98.02906036376953 123.78978729248047 100.88707733154297 88.98460388183594 100.88707733154297 L 88.98460388183594 100.8870620727539 Z " fill="#FF0000" fill-rule="nonzero" stroke="#FF0000" stroke-width="0.5134840652141671" stroke-linecap="butt" stroke-linejoin="miter" stroke-miterlimit="10" stroke-dasharray="" stroke-dashoffset="0" style="mix-blend-mode: normal" transform="matrix(1 0 0 1 -2.30848 90.6242)" class="" fill-opacity="1"/><path d="M 152.17800903320312 172.5331573486328 L 152.17800903320312 218.918701171875 C 208.80162048339844 220.86074829101562 254.37289428710938 215.9431915283203 288.891845703125 204.16615295410156 L 288.891845703125 157.8701629638672 C 257.2717590332031 167.64547729492188 211.70046997070312 172.5331573486328 152.17800903320312 172.5331573486328 L 152.17800903320312 172.5331573486328 Z " fill="#96F2FF" fill-rule="nonzero" stroke="none" stroke-width="0.9984762394846953" stroke-linecap="butt" stroke-linejoin="miter" stroke-miterlimit="10" stroke-dasharray="" stroke-dashoffset="0" style="mix-blend-mode: normal" transform="matrix(0.999848 -0.0174524 0.0174524 0.999848 -100.661 -99.5472)" class="" fill-opacity="1"/><path d="M 88.98460388183594 207.5206756591797 " stroke="#FF0000" fill="none" stroke-width="0.9984759270865166" class="" transform="matrix(1 0 0 1 -2.30848 23.2732)"/><path d="M 88.98460388183594 213.166259765625 L 128.9556427001953 265.2154541015625 " stroke="none" fill="#96F2FF" stroke-width="0.9984759270865166" class="" transform="matrix(1 0 0 1 -2.30848 23.2732)"/><path d="M 88.98460388183594 213.166259765625 L 125.44113159179688 259.35076904296875 " stroke="none" fill="#96F2FF" stroke-width="0.9984759270865166" class="" transform="matrix(1 0 0 1 -2.30848 23.2732)"/><path d="M 88.98460388183594 236.2584991455078 L 81.7913589477539 224.52911376953125 " stroke="none" fill="#96F2FF" stroke-width="0.9984759270865166" class="" transform="matrix(1 0 0 1 -2.30848 23.2732)"/><path d="M 88.98458862304688 207.5206756591797 L 128.9556427001953 275.08001708984375 " stroke="none" fill="#96F2FF" stroke-width="0.9984759270865166" class="" transform="matrix(1 0 0 1 -2.30848 23.2732)"/><path d="M 88.984619140625 207.52073669433594 L 128.95567321777344 265.2155456542969 L 168.92672729492188 195.60281372070312 C 160.09664916992188 203.54808044433594 133.4492950439453 207.52073669433594 88.984619140625 207.52073669433594 Z " stroke="#96F2FF" fill="#96F2FF" stroke-width="0.9984762394846953" class="" transform="matrix(0.999848 0.0174524 -0.0174524 0.999848 1.71551 17.8132)"/><path d="M 179.60263061523438 473.6395568847656 " stroke="#000000" fill="#000E57" stroke-width="1.112531577274735" class="" transform="matrix(1 0 0 1 -72.9405 -119.494)"/><path d="M 221.40643310546875 134.54635620117188 " stroke="#000000" fill="#000E57" stroke-width="1.112531577274735" class="" transform="matrix(1 0 0 1 -72.9405 -119.494)"/><path d="M 102.31472778320312 260.287353515625 " stroke="#000000" fill="#000E57" stroke-width="1.112531577274735" class="" transform="matrix(1 0 0 1 -72.9405 -119.494)"/><g transform="matrix(1 0 0 1 26.2025 319.463)"><path d="M21.800000 87L21.800000 87L21.800000 70Q21.800000 68 21.200000 67.450000Q20.600000 66.900000 18.700000 66.900000L18.700000 66.900000L11.900000 66.900000Q4 66.900000 4 59L4 59L4 41.700000Q4 33.800000 11.900000 33.800000L11.900000 33.800000L20.700000 33.800000Q28.600000 33.800000 28.600000 41.700000L28.600000 41.700000L28.600000 51.300000L21.700000 51.300000L21.700000 42.800000Q21.700000 40.800000 21.150000 40.250000Q20.600000 39.700000 18.600000 39.700000L18.600000 39.700000L14 39.700000Q12 39.700000 11.450000 40.250000Q10.900000 40.800000 10.900000 42.800000L10.900000 42.800000L10.900000 57.900000Q10.900000 59.800000 11.450000 60.400000Q12 61 14 61L14 61L20.800000 61Q28.700000 61 28.700000 68.900000L28.700000 68.900000L28.700000 88.100000Q28.700000 96 20.800000 96L20.800000 96L12.100000 96Q4.200000 96 4.200000 88.100000L4.200000 88.100000L4.200000 78.500000L11.100000 78.500000L11.100000 87Q11.100000 89 11.650000 89.550000Q12.200000 90.100000 14.200000 90.100000L14.200000 90.100000L18.700000 90.100000Q20.600000 90.100000 21.200000 89.550000Q21.800000 89 21.800000 87Z" opacity="1" fill="#000E57" fill-opacity="1" stroke="none" stroke-opacity="1" stroke-width="0" transform="matrix(1 0 0 1 0 0)"/><path d="M63.200000 41.700000L63.200000 52.200000L56.300000 52.200000L56.300000 42.800000Q56.300000 40.800000 55.700000 40.250000Q55.100000 39.700000 53.200000 39.700000L53.200000 39.700000L47.700000 39.700000Q45.700000 39.700000 45.150000 40.250000Q44.600000 40.800000 44.600000 42.800000L44.600000 42.800000L44.600000 87.100000Q44.600000 89 45.150000 89.600000Q45.700000 90.200000 47.700000 90.200000L47.700000 90.200000L53.200000 90.200000Q55.100000 90.200000 55.700000 89.600000Q56.300000 89 56.300000 87.100000L56.300000 87.100000L56.300000 77.700000L63.200000 77.700000L63.200000 88.200000Q63.200000 96.100000 55.300000 96.100000L55.300000 96.100000L45.600000 96.100000Q37.700000 96.100000 37.700000 88.200000L37.700000 88.200000L37.700000 41.700000Q37.700000 33.800000 45.600000 33.800000L45.600000 33.800000L55.300000 33.800000Q63.200000 33.800000 63.200000 41.700000L63.200000 41.700000Z" opacity="1" fill="#000E57" fill-opacity="1" stroke="none" stroke-opacity="1" stroke-width="0" transform="matrix(1 0 0 1 0 0)"/><path d="M85.400000 70L79.500000 70L79.500000 96L72.700000 96L72.700000 33.800000L90.800000 33.800000Q98.700000 33.800000 98.700000 41.700000L98.700000 41.700000L98.700000 62.100000Q98.700000 69.200000 92.500000 69.900000L92.500000 69.900000L101.900000 96L94.500000 96L85.400000 70ZM88.800000 39.700000L79.500000 39.700000L79.500000 64.100000L88.800000 64.100000Q90.800000 64.100000 91.350000 63.550000Q91.900000 63 91.900000 61L91.900000 61L91.900000 42.800000Q91.900000 40.800000 91.350000 40.250000Q90.800000 39.700000 88.800000 39.700000L88.800000 39.700000Z" opacity="1" fill="#000E57" fill-opacity="1" stroke="none" stroke-opacity="1" stroke-width="0" transform="matrix(1 0 0 1 0 0)"/><path d="M128 87L128 33.800000L134.800000 33.800000L134.800000 88.100000Q134.800000 96 126.900000 96L126.900000 96L116.700000 96Q108.800000 96 108.800000 88.100000L108.800000 88.100000L108.800000 33.800000L115.600000 33.800000L115.600000 87Q115.600000 89 116.200000 89.550000Q116.800000 90.100000 118.700000 90.100000L118.700000 90.100000L124.900000 90.100000Q126.800000 90.100000 127.400000 89.550000Q128 89 128 87L128 87Z" opacity="1" fill="#000E57" fill-opacity="1" stroke="none" stroke-opacity="1" stroke-width="0" transform="matrix(1 0 0 1 0 0)"/><path d="M146.500000 96L146.500000 33.800000L153.300000 33.800000L153.300000 96L146.500000 96Z" opacity="1" fill="#000E57" fill-opacity="1" stroke="none" stroke-opacity="1" stroke-width="0" transform="matrix(1 0 0 1 0 0)"/><path d="M165.300000 96L165.300000 33.800000L185 33.800000Q192.900000 33.800000 192.900000 41.700000L192.900000 41.700000L192.900000 88.100000Q192.900000 96 185 96L185 96L165.300000 96ZM186 87L186 87L186 42.800000Q186 40.800000 185.400000 40.250000Q184.800000 39.700000 182.900000 39.700000L182.900000 39.700000L172.200000 39.700000L172.200000 90.100000L182.900000 90.100000Q184.800000 90.100000 185.400000 89.550000Q186 89 186 87Z" opacity="1" fill="#000E57" fill-opacity="1" stroke="none" stroke-opacity="1" stroke-width="0" class="" transform="matrix(1 0 0 1 0 0)"/></g></g>
            </g>
            <g class="foreground-layers">
                <g class="layer guides locked" style="display:none"/>
            </g>
        </g>
    
<meta xmlns="http://www.w3.org/1999/xhtml" id="page-properties" xmlns:jvs="http://www.janvas.com/ns"><jvs:property name="width" value="250"></jvs:property><jvs:property name="height" value="430"></jvs:property><jvs:property name="unitKey" value="PIXEL"></jvs:property><jvs:property name="drawingScale" value="1"></jvs:property><jvs:property name="fixedDecimals" value="2"></jvs:property><jvs:property name="showGrid" value="false"></jvs:property><jvs:property name="showRulers" value="true"></jvs:property><jvs:property name="gridStep" value="10"></jvs:property></meta></svg></svg>