<svg xmlns="http://www.w3.org/2000/svg" xmlns:xlink="http://www.w3.org/1999/xlink" width="260" height="350" data-version="6.2"><defs>
    </defs><svg class="page-2D showed" xmlns="http://www.w3.org/2000/svg" x="0px" y="0" width="260" height="350" data-width="260" data-height="350" viewBox="0 0 260 350">
    <g class="content">
            <g class="layers" id="IDI_8yjhszh">
                <g transform="matrix(1 0 0 1 0 0)" name="Layer 1" data-color="#ff7f00" class="layer selected"><path d="M 309.5888671875 250.9210968017578 C 309.5888671875 315.1930847167969 258.5082702636719 367.29583740234375 195.49717712402344 367.29583740234375 C 132.486083984375 367.29583740234375 81.40548706054688 315.1930847167969 81.40548706054688 250.9210968017578 C 81.40548706054688 186.64910888671875 132.486083984375 134.54635620117188 195.49717712402344 134.54635620117188 C 258.5082702636719 134.54635620117188 309.5888671875 186.64910888671875 309.5888671875 250.9210968017578 Z " stroke="none" fill="#000E57" stroke-width="1.112531577274735" transform="matrix(1 0 0 1 -66.6493 -121.588)" class=""/><path d="M 204.06932067871094 432.94476318359375 C 351.5513000488281 252.95262145996094 351.5513000488281 144.11766052246094 204.06932067871094 106.43983459472656 C 55.34804916381836 148.51339721679688 55.34804916381836 257.348388671875 204.06932067871094 432.94476318359375 Z " fill="#000E57" fill-rule="nonzero" stroke="none" stroke-width="1.145145656493895" stroke-linecap="butt" stroke-linejoin="miter" stroke-miterlimit="10" stroke-dasharray="" stroke-dashoffset="0" style="mix-blend-mode: normal" transform="matrix(1 0 0 1 -74.2553 -89.443)" class="" stroke-opacity="1"/><path d="M 88.98460388183594 100.8870849609375 L 88.98460388183594 128.01058959960938 C 122.09471893310547 129.1461639404297 148.74208068847656 126.27069854736328 168.92669677734375 119.3841781616211 L 168.92669677734375 92.31304168701172 C 150.43716430664062 98.02908325195312 123.78978729248047 100.88709259033203 88.98460388183594 100.88709259033203 L 88.98460388183594 100.8870849609375 Z " fill="#FF0000" fill-rule="nonzero" stroke="#FF0000" stroke-width="0.5134840652141671" stroke-linecap="butt" stroke-linejoin="miter" stroke-miterlimit="10" stroke-dasharray="" stroke-dashoffset="0" style="mix-blend-mode: normal" transform="matrix(1 0 0 1 1.46877 27.2141)" class="" fill-opacity="1"/><path d="M 88.98460388183594 100.88709259033203 L 88.98460388183594 128.01058959960938 C 122.09471893310547 129.14617919921875 148.74208068847656 126.27069854736328 168.92669677734375 119.38418579101562 L 168.92669677734375 92.31304931640625 C 150.43716430664062 98.02908325195312 123.78978729248047 100.88710021972656 88.98460388183594 100.88710021972656 L 88.98460388183594 100.88709259033203 Z " fill="#FF0000" fill-rule="nonzero" stroke="#FF0000" stroke-width="0.5134840652141671" stroke-linecap="butt" stroke-linejoin="miter" stroke-miterlimit="10" stroke-dasharray="" stroke-dashoffset="0" style="mix-blend-mode: normal" transform="matrix(1 0 0 1 1.46877 60.8891)" class="" fill-opacity="1"/><path d="M 88.98460388183594 100.8870620727539 L 88.98460388183594 128.01058959960938 C 122.09471893310547 129.14614868164062 148.74208068847656 126.27067565917969 168.92669677734375 119.38416290283203 L 168.92669677734375 92.31302642822266 C 150.43716430664062 98.02906036376953 123.78978729248047 100.88707733154297 88.98460388183594 100.88707733154297 L 88.98460388183594 100.8870620727539 Z " fill="#FF0000" fill-rule="nonzero" stroke="#FF0000" stroke-width="0.5134840652141671" stroke-linecap="butt" stroke-linejoin="miter" stroke-miterlimit="10" stroke-dasharray="" stroke-dashoffset="0" style="mix-blend-mode: normal" transform="matrix(1 0 0 1 1.46877 94.5651)" class="" fill-opacity="1"/><path d="M 152.17800903320312 172.5331573486328 L 152.17800903320312 218.918701171875 C 208.80162048339844 220.86074829101562 254.37289428710938 215.9431915283203 288.891845703125 204.16615295410156 L 288.891845703125 157.8701629638672 C 257.2717590332031 167.64547729492188 211.70046997070312 172.5331573486328 152.17800903320312 172.5331573486328 L 152.17800903320312 172.5331573486328 Z " fill="#96F2FF" fill-rule="nonzero" stroke="none" stroke-width="0.9984762394846953" stroke-linecap="butt" stroke-linejoin="miter" stroke-miterlimit="10" stroke-dasharray="" stroke-dashoffset="0" style="mix-blend-mode: normal" transform="matrix(0.999848 -0.0174524 0.0174524 0.999848 -96.8832 -95.6059)" class="" fill-opacity="1"/><path d="M 88.98460388183594 207.5206756591797 " stroke="#FF0000" fill="none" stroke-width="0.9984759270865166" class="" transform="matrix(1 0 0 1 1.46877 27.2141)"/><path d="M 88.98460388183594 213.166259765625 L 128.9556427001953 265.2154541015625 " stroke="none" fill="#96F2FF" stroke-width="0.9984759270865166" class="" transform="matrix(1 0 0 1 1.46877 27.2141)"/><path d="M 88.98460388183594 213.166259765625 L 125.44113159179688 259.35076904296875 " stroke="none" fill="#96F2FF" stroke-width="0.9984759270865166" class="" transform="matrix(1 0 0 1 1.46877 27.2141)"/><path d="M 88.98460388183594 236.2584991455078 L 81.7913589477539 224.52911376953125 " stroke="none" fill="#96F2FF" stroke-width="0.9984759270865166" class="" transform="matrix(1 0 0 1 1.46877 27.2141)"/><path d="M 88.98458862304688 207.5206756591797 L 128.9556427001953 275.08001708984375 " stroke="none" fill="#96F2FF" stroke-width="0.9984759270865166" class="" transform="matrix(1 0 0 1 1.46877 27.2141)"/><path d="M 88.984619140625 207.52073669433594 L 128.95567321777344 265.2155456542969 L 168.92672729492188 195.60281372070312 C 160.09664916992188 203.54808044433594 133.4492950439453 207.52073669433594 88.984619140625 207.52073669433594 Z " stroke="#96F2FF" fill="#96F2FF" stroke-width="0.9984762394846953" class="" transform="matrix(0.999848 0.0174524 -0.0174524 0.999848 5.49277 21.7541)"/><path d="M 221.40643310546875 134.54635620117188 " stroke="#000000" fill="#000E57" stroke-width="1.112531577274735" class="" transform="matrix(1 0 0 1 -69.1633 -115.553)"/><path d="M 102.31472778320312 260.287353515625 " stroke="#000000" fill="#000E57" stroke-width="1.112531577274735" class="" transform="matrix(1 0 0 1 -69.1633 -115.553)"/></g>
            </g>
            <g class="foreground-layers">
                <g class="layer guides locked" style="display:none"/>
            </g>
        </g>
    
<meta xmlns="http://www.w3.org/1999/xhtml" id="page-properties" xmlns:jvs="http://www.janvas.com/ns"><jvs:property name="width" value="260"></jvs:property><jvs:property name="height" value="350"></jvs:property><jvs:property name="unitKey" value="PIXEL"></jvs:property><jvs:property name="drawingScale" value="1"></jvs:property><jvs:property name="fixedDecimals" value="2"></jvs:property><jvs:property name="showGrid" value="false"></jvs:property><jvs:property name="showRulers" value="true"></jvs:property><jvs:property name="gridStep" value="10"></jvs:property></meta></svg></svg>