<svg xmlns="http://www.w3.org/2000/svg" xmlns:xlink="http://www.w3.org/1999/xlink" width="310" height="130" data-version="6.2"><defs>
    </defs><svg class="page-2D showed" xmlns="http://www.w3.org/2000/svg" x="0px" y="0" width="310" height="130" data-width="310" data-height="130" viewBox="0 0 310 130">
    <g class="content">
            <g class="layers" id="IDI_21bgntku">
                <g transform="matrix(1 0 0 1 0 0)" name="Layer 1" data-color="#ff7f00" class="layer selected"><path d="M 110.79046630859375 89.79544830322266 C 110.79046630859375 112.79602813720703 92.5105972290039 131.4416961669922 69.96124267578125 131.4416961669922 C 47.411888122558594 131.4416961669922 29.132017135620117 112.79602813720703 29.132017135620117 89.79544830322266 C 29.132017135620117 66.79486083984375 47.411888122558594 48.149200439453125 69.96124267578125 48.149200439453125 C 92.5105972290039 48.149200439453125 110.79046630859375 66.79486083984375 110.79046630859375 89.79544830322266 Z " stroke="none" fill="#000E57" stroke-width="0.39813419971027053" transform="matrix(1 0 0 1 -20.494 -42.3934)" class=""/><path d="M 73.02892303466797 154.93504333496094 C 125.80731201171875 90.5224609375 125.80731201171875 51.574424743652344 73.02892303466797 38.09091567993164 C 19.807037353515625 53.14749526977539 19.807037353515625 92.09554290771484 73.02892303466797 154.93504333496094 Z " fill="#000E57" fill-rule="nonzero" stroke="none" stroke-width="0.40980558108446513" stroke-linecap="butt" stroke-linejoin="miter" stroke-miterlimit="10" stroke-dasharray="" stroke-dashoffset="0" style="mix-blend-mode: normal" transform="matrix(1 0 0 1 -23.216 -30.8904)" class=""/><path d="M 31.844316482543945 36.103790283203125 L 31.844316482543945 45.810298919677734 C 43.69321060180664 46.216678619384766 53.22932434082031 45.18765640258789 60.452659606933594 42.72322082519531 L 60.452659606933594 33.03545379638672 C 53.835933685302734 35.081016540527344 44.2998161315918 36.10379409790039 31.844316482543945 36.10379409790039 L 31.844316482543945 36.103790283203125 Z " fill="#FF0000" fill-rule="nonzero" stroke="#FF0000" stroke-width="0.18375709197289086" stroke-linecap="butt" stroke-linejoin="miter" stroke-miterlimit="10" stroke-dasharray="" stroke-dashoffset="0" style="mix-blend-mode: normal" transform="matrix(1 0 0 1 3.88303 10.8576)" class="" fill-opacity="1"/><path d="M 31.844316482543945 36.103790283203125 L 31.844316482543945 45.81029510498047 C 43.69321060180664 46.216678619384766 53.22932434082031 45.187652587890625 60.452659606933594 42.72322082519531 L 60.452659606933594 33.03545379638672 C 53.835933685302734 35.08101272583008 44.2998161315918 36.103790283203125 31.844316482543945 36.103790283203125 L 31.844316482543945 36.103790283203125 Z " fill="#FF0000" fill-rule="nonzero" stroke="#FF0000" stroke-width="0.18375709197289086" stroke-linecap="butt" stroke-linejoin="miter" stroke-miterlimit="10" stroke-dasharray="" stroke-dashoffset="0" style="mix-blend-mode: normal" transform="matrix(1 0 0 1 3.88303 22.9086)" class="" fill-opacity="1"/><path d="M 31.844316482543945 36.10377502441406 L 31.844316482543945 45.8102912902832 C 43.69321060180664 46.21666717529297 53.22932434082031 45.18763732910156 60.452659606933594 42.72320556640625 L 60.452659606933594 33.035438537597656 C 53.835933685302734 35.08100128173828 44.2998161315918 36.10377883911133 31.844316482543945 36.10377883911133 L 31.844316482543945 36.10377502441406 Z " fill="#FF0000" fill-rule="nonzero" stroke="#FF0000" stroke-width="0.18375709197289086" stroke-linecap="butt" stroke-linejoin="miter" stroke-miterlimit="10" stroke-dasharray="" stroke-dashoffset="0" style="mix-blend-mode: normal" transform="matrix(1 0 0 1 3.88303 34.9596)" class="" fill-opacity="1"/><path d="M 54.458961486816406 61.74330139160156 L 54.458961486816406 78.3429946899414 C 74.72247314453125 79.03797912597656 91.03076934814453 77.27816009521484 103.38384246826172 73.06359100341797 L 103.38384246826172 56.49595260620117 C 92.06816101074219 59.99418258666992 75.7598648071289 61.74330139160156 54.458961486816406 61.74330139160156 L 54.458961486816406 61.74330139160156 Z " fill="#96F2FF" fill-rule="nonzero" stroke="none" stroke-width="0.35731809418586047" stroke-linecap="butt" stroke-linejoin="miter" stroke-miterlimit="10" stroke-dasharray="" stroke-dashoffset="0" style="mix-blend-mode: normal" transform="matrix(0.999848 -0.0174524 0.0174524 0.999848 -31.313 -33.0954)" class="" fill-opacity="1"/><path d="M 31.844316482543945 74.2640380859375 " stroke="#FF0000" fill="none" stroke-width="0.3573178705941512" class="" transform="matrix(1 0 0 1 3.88303 10.8576)"/><path d="M 31.844316482543945 76.28438568115234 L 46.14848709106445 94.91088104248047 " stroke="none" fill="#96F2FF" stroke-width="0.3573178705941512" class="" transform="matrix(1 0 0 1 3.88303 10.8576)"/><path d="M 31.844316482543945 76.28438568115234 L 44.890769958496094 92.81211853027344 " stroke="none" fill="#96F2FF" stroke-width="0.3573178705941512" class="" transform="matrix(1 0 0 1 3.88303 10.8576)"/><path d="M 31.844316482543945 84.5482406616211 L 29.270118713378906 80.3507308959961 " stroke="none" fill="#96F2FF" stroke-width="0.3573178705941512" class="" transform="matrix(1 0 0 1 3.88303 10.8576)"/><path d="M 31.844310760498047 74.2640380859375 L 46.14848709106445 98.44104766845703 " stroke="none" fill="#96F2FF" stroke-width="0.3573178705941512" class="" transform="matrix(1 0 0 1 3.88303 10.8576)"/><path d="M 31.844324111938477 74.26406860351562 L 46.148502349853516 94.91093444824219 L 60.45267868041992 69.99907684326172 C 57.29271697998047 72.84239959716797 47.75659942626953 74.26406860351562 31.844324111938477 74.26406860351562 Z " stroke="#96F2FF" fill="#96F2FF" stroke-width="0.35731809418586047" class="" transform="matrix(0.999848 0.0174524 -0.0174524 0.999848 5.32304 8.90358)"/><path d="M 64.27318572998047 169.49819946289062 " stroke="#000000" fill="#000E57" stroke-width="0.39813419971027053" class="" transform="matrix(1 0 0 1 -21.3939 -40.2334)"/><path d="M 36.61468505859375 93.14729309082031 " stroke="#000000" fill="#000E57" stroke-width="0.39813419971027053" class="" transform="matrix(1 0 0 1 -21.3939 -40.2334)"/><g transform="matrix(1 0 0 1 100.999 3.00459)"><path d="M21.800000 87L21.800000 87L21.800000 70Q21.800000 68 21.200000 67.450000Q20.600000 66.900000 18.700000 66.900000L18.700000 66.900000L11.900000 66.900000Q4 66.900000 4 59L4 59L4 41.700000Q4 33.800000 11.900000 33.800000L11.900000 33.800000L20.700000 33.800000Q28.600000 33.800000 28.600000 41.700000L28.600000 41.700000L28.600000 51.300000L21.700000 51.300000L21.700000 42.800000Q21.700000 40.800000 21.150000 40.250000Q20.600000 39.700000 18.600000 39.700000L18.600000 39.700000L14 39.700000Q12 39.700000 11.450000 40.250000Q10.900000 40.800000 10.900000 42.800000L10.900000 42.800000L10.900000 57.900000Q10.900000 59.800000 11.450000 60.400000Q12 61 14 61L14 61L20.800000 61Q28.700000 61 28.700000 68.900000L28.700000 68.900000L28.700000 88.100000Q28.700000 96 20.800000 96L20.800000 96L12.100000 96Q4.200000 96 4.200000 88.100000L4.200000 88.100000L4.200000 78.500000L11.100000 78.500000L11.100000 87Q11.100000 89 11.650000 89.550000Q12.200000 90.100000 14.200000 90.100000L14.200000 90.100000L18.700000 90.100000Q20.600000 90.100000 21.200000 89.550000Q21.800000 89 21.800000 87Z" opacity="1" fill="#000E57" fill-opacity="1" stroke="none" stroke-opacity="1" stroke-width="0" transform="matrix(1 0 0 1 0 0)"/><path d="M63.200000 41.700000L63.200000 52.200000L56.300000 52.200000L56.300000 42.800000Q56.300000 40.800000 55.700000 40.250000Q55.100000 39.700000 53.200000 39.700000L53.200000 39.700000L47.700000 39.700000Q45.700000 39.700000 45.150000 40.250000Q44.600000 40.800000 44.600000 42.800000L44.600000 42.800000L44.600000 87.100000Q44.600000 89 45.150000 89.600000Q45.700000 90.200000 47.700000 90.200000L47.700000 90.200000L53.200000 90.200000Q55.100000 90.200000 55.700000 89.600000Q56.300000 89 56.300000 87.100000L56.300000 87.100000L56.300000 77.700000L63.200000 77.700000L63.200000 88.200000Q63.200000 96.100000 55.300000 96.100000L55.300000 96.100000L45.600000 96.100000Q37.700000 96.100000 37.700000 88.200000L37.700000 88.200000L37.700000 41.700000Q37.700000 33.800000 45.600000 33.800000L45.600000 33.800000L55.300000 33.800000Q63.200000 33.800000 63.200000 41.700000L63.200000 41.700000Z" opacity="1" fill="#000E57" fill-opacity="1" stroke="none" stroke-opacity="1" stroke-width="0" transform="matrix(1 0 0 1 0 0)" class=""/><path d="M85.400000 70L79.500000 70L79.500000 96L72.700000 96L72.700000 33.800000L90.800000 33.800000Q98.700000 33.800000 98.700000 41.700000L98.700000 41.700000L98.700000 62.100000Q98.700000 69.200000 92.500000 69.900000L92.500000 69.900000L101.900000 96L94.500000 96L85.400000 70ZM88.800000 39.700000L79.500000 39.700000L79.500000 64.100000L88.800000 64.100000Q90.800000 64.100000 91.350000 63.550000Q91.900000 63 91.900000 61L91.900000 61L91.900000 42.800000Q91.900000 40.800000 91.350000 40.250000Q90.800000 39.700000 88.800000 39.700000L88.800000 39.700000Z" opacity="1" fill="#000E57" fill-opacity="1" stroke="none" stroke-opacity="1" stroke-width="0" transform="matrix(1 0 0 1 0 0)" class=""/><path d="M128 87L128 33.800000L134.800000 33.800000L134.800000 88.100000Q134.800000 96 126.900000 96L126.900000 96L116.700000 96Q108.800000 96 108.800000 88.100000L108.800000 88.100000L108.800000 33.800000L115.600000 33.800000L115.600000 87Q115.600000 89 116.200000 89.550000Q116.800000 90.100000 118.700000 90.100000L118.700000 90.100000L124.900000 90.100000Q126.800000 90.100000 127.400000 89.550000Q128 89 128 87L128 87Z" opacity="1" fill="#000E57" fill-opacity="1" stroke="none" stroke-opacity="1" stroke-width="0" class="" transform="matrix(1 0 0 1 0 0)"/><path d="M146.500000 96L146.500000 33.800000L153.300000 33.800000L153.300000 96L146.500000 96Z" opacity="1" fill="#000E57" fill-opacity="1" stroke="none" stroke-opacity="1" stroke-width="0" transform="matrix(1 0 0 1 0 0)"/><path d="M165.300000 96L165.300000 33.800000L185 33.800000Q192.900000 33.800000 192.900000 41.700000L192.900000 41.700000L192.900000 88.100000Q192.900000 96 185 96L185 96L165.300000 96ZM186 87L186 87L186 42.800000Q186 40.800000 185.400000 40.250000Q184.800000 39.700000 182.900000 39.700000L182.900000 39.700000L172.200000 39.700000L172.200000 90.100000L182.900000 90.100000Q184.800000 90.100000 185.400000 89.550000Q186 89 186 87Z" opacity="1" fill="#000E57" fill-opacity="1" stroke="none" stroke-opacity="1" stroke-width="0" transform="matrix(1 0 0 1 0 0)"/></g></g>
            </g>
            <g class="foreground-layers">
                <g class="layer guides locked" style="display:none"/>
            </g>
        </g>
    
<meta xmlns="http://www.w3.org/1999/xhtml" id="page-properties" xmlns:jvs="http://www.janvas.com/ns"><jvs:property name="width" value="310"></jvs:property><jvs:property name="height" value="130"></jvs:property><jvs:property name="unitKey" value="PIXEL"></jvs:property><jvs:property name="drawingScale" value="1"></jvs:property><jvs:property name="fixedDecimals" value="2"></jvs:property><jvs:property name="showGrid" value="false"></jvs:property><jvs:property name="showRulers" value="true"></jvs:property><jvs:property name="gridStep" value="10"></jvs:property></meta></svg></svg>